<svg id="图层_1" data-name="图层 1" xmlns="http://www.w3.org/2000/svg" xmlns:xlink="http://www.w3.org/1999/xlink" viewBox="0 0 934.1 900.5"><defs><style>.cls-1{fill:url(#未命名的渐变_5);}.cls-2{fill:url(#未命名的渐变_5-2);}</style><linearGradient id="未命名的渐变_5" x1="11.45" y1="512.12" x2="1012.02" y2="536.34" gradientUnits="userSpaceOnUse"><stop offset="0" stop-color="#5f5bd3"/><stop offset="1" stop-color="#7157d3"/></linearGradient><linearGradient id="未命名的渐变_5-2" x1="794.9" y1="692.6" x2="794.9" y2="692.6" xlink:href="#未命名的渐变_5"/></defs><path class="cls-1" d="M365,551.18c62,87.4,207.63,77.63,275.35,9.78A43.22,43.22,0,0,1,659,549.65c7.62-2.16,15.8-1.66,22.44,5.07,8.25,8.34,13.2,25,18.14,53.41C721,508,709.73,431.32,678.5,365.07,627.92,255.3,478.38,214.75,388.37,296.19,314.76,356.81,308.19,477.54,365,551.18ZM600.76,413c32.2-4.05,38.4,45.25,6.42,49.67C575,466.75,568.78,417.45,600.76,413Zm-95.64,0c32.2-4.05,38.4,45.25,6.43,49.67C479.35,466.75,473.15,417.45,505.12,413Zm-95.63,0c32.2-4.05,38.4,45.25,6.43,49.67C383.72,466.75,377.52,417.45,409.49,413Zm-321.6-.2c-28-44.83-41.91-115-47-151.77a936.43,936.43,0,0,1,142.43-89.45C312.25,106,432.92,82.57,519.08,74,392.92,145.77,269.61,331.48,294.3,490.77l.45-.08A230,230,0,0,0,309,537.37c11.85,28-8.36,54.07-31.45,44C169.05,534.37,127.46,476.26,87.89,412.84ZM505.68,974.5C267.18,819.2,209.07,709.3,114.76,526.8c62.83,48,180.9,113,260,128.07,87.39,16.69,155.39,22.8,254.66-32.18,16.24-12.27,38.6-18.16,48.78,4.67C707.35,706.57,543.45,930,505.68,974.5ZM974.1,266.25l.86.66c-8.58,43.79-25,107.24-44.52,166.79C877.67,336.89,597.37,204.19,491.79,213c-30.48,2.54-46.71-34.15-26.83-57.66,23.59-27.91,45-47.94,87.9-63,37.94-13.3,71.89-6.37,98.93-1.67C843.56,124,961.51,252.39,975,260.2ZM877.86,561.54C833.16,652.36,760.61,788.4,572.32,947,681.85,801,772.34,607.22,738.53,424.79l.51-.07A264.07,264.07,0,0,0,707.5,328c-4.86-8.66,4.26-18.09,13.17-13.81,42.7,20.53,82.6,46.55,116.48,72.14C890.87,434.54,906.87,502.06,877.86,561.54Z" transform="translate(-40.9 -73.99)"/><path class="cls-2" d="M794.9,692.6" transform="translate(-40.9 -73.99)"/></svg>